<?xml version="1.0" encoding="utf-8"?>
<!-- Generator: Adobe Illustrator 16.0.0, SVG Export Plug-In . SVG Version: 6.00 Build 0)  -->
<!DOCTYPE svg PUBLIC "-//W3C//DTD SVG 1.1//EN" "http://www.w3.org/Graphics/SVG/1.1/DTD/svg11.dtd">
<svg version="1.1" id="Layer_1" xmlns="http://www.w3.org/2000/svg" xmlns:xlink="http://www.w3.org/1999/xlink" x="0px" y="0px"
	 width="267.064px" height="269px" viewBox="0 0 267.064 269" enable-background="new 0 0 267.064 269" xml:space="preserve">
<g>
	<polygon fill="#58938F" points="91.54,135.468 79.465,128.441 75.278,144.935 78.429,150.622 	"/>
	<polygon fill="#32A299" points="29.356,158.918 45.105,152.618 41.956,162.391 	"/>
	<polygon fill="#92D4D0" points="29.356,158.918 29.356,149.062 36.356,156.118 	"/>
	<polygon fill="#58938F" points="37.873,130.104 31.105,109.104 56.19,115.17 	"/>
	<polygon fill="#58938F" points="68.789,105.487 73.572,119.604 56.19,115.17 	"/>
	<polygon fill="#68C7BF" points="84.306,121.82 64.881,137.803 56.19,115.17 	"/>
	<polygon fill="#68C7BF" points="46.04,127.42 56.19,115.17 37.873,130.104 	"/>
	<polygon fill="#92D4D0" points="30.523,136.403 31.105,109.104 37.873,130.104 	"/>
	<polygon fill="#92D4D0" points="46.04,127.42 64.881,137.803 56.19,115.17 	"/>
	<polygon fill="#92D4D0" points="76.621,128.143 84.306,121.82 79.465,144.585 64.881,137.803 	"/>
	<polygon fill="#58938F" points="18.623,145.501 37.873,130.104 45.105,152.618 36.356,156.118 	"/>
	<polygon fill="#3A5E57" points="43.182,176.771 45.105,152.618 36.356,156.118 36.356,156.118 	"/>
	<polygon fill="#32A299" points="46.04,127.42 45.105,152.618 37.873,130.104 	"/>
	<polygon fill="#68C7BF" points="18.623,145.501 30.523,133.428 37.873,130.104 	"/>
	<polygon fill="#58938F" points="63.86,163.003 84.306,171.345 57.036,166.765 	"/>
	<polygon fill="#92D4D0" points="79.465,144.585 63.86,163.003 84.306,171.345 	"/>
	<polygon fill="#3A5E57" points="64.881,137.803 45.105,152.618 46.04,127.42 	"/>
	<polygon fill="#92D4D0" points="43.182,176.771 63.86,163.003 45.105,152.618 	"/>
	<polygon fill="#58938F" points="71.473,158.918 64.881,137.803 45.105,152.618 	"/>
	<polygon fill="#68C7BF" points="63.86,163.003 71.473,158.918 45.105,152.618 	"/>
	<polygon fill="#32A299" points="64.881,137.803 79.465,144.585 71.473,158.918 	"/>
</g>
<text transform="matrix(1 0 0 1 106.7075 153.4897)"><tspan x="0" y="0" fill="#32A299" font-family="'MyriadPro-Regular'" font-size="42.1155">Sym</tspan><tspan x="75.723" y="0" fill="#68C7BF" font-family="'MyriadPro-Regular'" font-size="42.1155">Bise</tspan></text>
</svg>
