<?xml version="1.0" encoding="utf-8"?>
<!-- Generator: Adobe Illustrator 16.0.0, SVG Export Plug-In . SVG Version: 6.00 Build 0)  -->
<!DOCTYPE svg PUBLIC "-//W3C//DTD SVG 1.1//EN" "http://www.w3.org/Graphics/SVG/1.1/DTD/svg11.dtd">
<svg version="1.1" id="Layer_1" xmlns="http://www.w3.org/2000/svg" xmlns:xlink="http://www.w3.org/1999/xlink" x="0px" y="0px"
	 width="273.988px" height="85.009px" viewBox="0 0 273.988 85.009" enable-background="new 0 0 273.988 85.009"
	 xml:space="preserve">
<g>
	<polygon fill="#58938F" points="86.064,35.901 71.979,27.703 67.094,46.944 70.77,53.579 	"/>
	<polygon fill="#32A299" points="13.521,63.258 31.895,55.908 28.221,67.309 	"/>
	<polygon fill="#92D4D0" points="13.521,63.258 13.521,51.76 21.688,59.991 	"/>
	<polygon fill="#58938F" points="23.457,29.643 15.563,5.145 44.826,12.222 	"/>
	<polygon fill="#58938F" points="59.523,0.925 65.104,17.394 44.826,12.222 	"/>
	<polygon fill="#68C7BF" points="77.625,19.979 54.965,38.625 44.826,12.222 	"/>
	<polygon fill="#68C7BF" points="32.984,26.513 44.826,12.222 23.457,29.643 	"/>
	<polygon fill="#92D4D0" points="14.883,36.992 15.563,5.145 23.457,29.643 	"/>
	<polygon fill="#92D4D0" points="32.984,26.513 54.965,38.625 44.826,12.222 	"/>
	<polygon fill="#92D4D0" points="68.66,27.355 77.625,19.979 71.979,46.537 54.965,38.625 	"/>
	<polygon fill="#58938F" points="1,47.605 23.457,29.643 31.895,55.908 21.688,59.991 	"/>
	<polygon fill="#3A5E57" points="29.65,84.084 31.895,55.908 21.688,59.991 21.688,59.991 	"/>
	<polygon fill="#32A299" points="32.984,26.513 31.895,55.908 23.457,29.643 	"/>
	<polygon fill="#68C7BF" points="1,47.605 14.883,33.521 23.457,29.643 	"/>
	<polygon fill="#58938F" points="53.773,68.023 77.625,77.755 45.813,72.412 	"/>
	<polygon fill="#92D4D0" points="71.979,46.537 53.773,68.023 77.625,77.755 	"/>
	<polygon fill="#3A5E57" points="54.965,38.625 31.895,55.908 32.984,26.513 	"/>
	<polygon fill="#92D4D0" points="29.65,84.084 53.773,68.023 31.895,55.908 	"/>
	<polygon fill="#58938F" points="62.654,63.258 54.965,38.625 31.895,55.908 	"/>
	<polygon fill="#68C7BF" points="53.773,68.023 62.654,63.258 31.895,55.908 	"/>
	<polygon fill="#32A299" points="54.965,38.625 71.979,46.537 62.654,63.258 	"/>
</g>
<g>
	<path fill="#32A299" d="M106.443,51.717c1.916,1.179,4.717,2.162,7.665,2.162c4.373,0,6.928-2.309,6.928-5.65
		c0-3.095-1.769-4.864-6.24-6.583c-5.404-1.917-8.746-4.717-8.746-9.385c0-5.159,4.275-8.991,10.712-8.991
		c3.39,0,5.847,0.786,7.32,1.622l-1.179,3.488c-1.081-0.59-3.292-1.572-6.289-1.572c-4.521,0-6.24,2.702-6.24,4.962
		c0,3.095,2.015,4.619,6.584,6.387c5.602,2.162,8.451,4.864,8.451,9.729c0,5.11-3.783,9.532-11.596,9.532
		c-3.193,0-6.683-0.934-8.451-2.113L106.443,51.717z"/>
	<path fill="#32A299" d="M132.287,33.145l5.208,14.052c0.54,1.572,1.13,3.439,1.523,4.864h0.098
		c0.442-1.425,0.934-3.243,1.523-4.962l4.717-13.954h4.569l-6.485,16.951c-3.096,8.156-5.208,12.333-8.156,14.888
		c-2.113,1.867-4.226,2.604-5.307,2.8l-1.081-3.636c1.081-0.344,2.506-1.032,3.783-2.113c1.18-0.934,2.653-2.604,3.636-4.815
		c0.197-0.442,0.345-0.786,0.345-1.032c0-0.246-0.099-0.59-0.295-1.13l-8.795-21.914H132.287z"/>
	<path fill="#32A299" d="M153.855,39.581c0-2.457-0.05-4.471-0.196-6.437h3.783l0.196,3.833h0.147
		c1.326-2.26,3.537-4.373,7.468-4.373c3.243,0,5.7,1.965,6.731,4.766h0.099c0.736-1.327,1.67-2.358,2.653-3.095
		c1.425-1.081,2.997-1.67,5.257-1.67c3.145,0,7.813,2.063,7.813,10.318v14.003h-4.226V43.463c0-4.569-1.671-7.321-5.159-7.321
		c-2.457,0-4.373,1.818-5.109,3.931c-0.197,0.589-0.345,1.375-0.345,2.162v14.691h-4.225V42.677c0-3.783-1.671-6.535-4.963-6.535
		c-2.702,0-4.668,2.162-5.355,4.324c-0.246,0.639-0.344,1.375-0.344,2.112v14.347h-4.226V39.581z"/>
	<path fill="#68C7BF" d="M194.635,56.925c0.098-1.622,0.196-4.029,0.196-6.142V22.041h4.274v14.937h0.099
		c1.522-2.653,4.274-4.373,8.106-4.373c5.896,0,10.072,4.913,10.023,12.136c0,8.5-5.355,12.726-10.662,12.726
		c-3.439,0-6.19-1.327-7.96-4.471h-0.146l-0.197,3.931H194.635z M199.105,47.394c0,0.541,0.099,1.081,0.196,1.572
		c0.836,2.997,3.342,5.061,6.486,5.061c4.52,0,7.222-3.685,7.222-9.139c0-4.766-2.456-8.844-7.075-8.844
		c-2.947,0-5.699,2.015-6.583,5.307c-0.099,0.491-0.246,1.081-0.246,1.769V47.394z"/>
	<path fill="#68C7BF" d="M227.601,26.463c0.05,1.474-1.031,2.653-2.751,2.653c-1.523,0-2.604-1.179-2.604-2.653
		c0-1.523,1.131-2.703,2.703-2.703C226.569,23.76,227.601,24.939,227.601,26.463z M222.786,56.925V33.145h4.323v23.781H222.786z"/>
	<path fill="#68C7BF" d="M233.692,52.503c1.277,0.835,3.538,1.72,5.699,1.72c3.145,0,4.619-1.572,4.619-3.538
		c0-2.064-1.229-3.194-4.422-4.373c-4.275-1.523-6.289-3.881-6.289-6.731c0-3.832,3.095-6.977,8.205-6.977
		c2.407,0,4.52,0.688,5.847,1.474l-1.081,3.145c-0.934-0.589-2.653-1.375-4.864-1.375c-2.555,0-3.979,1.474-3.979,3.243
		c0,1.965,1.425,2.85,4.521,4.029c4.127,1.572,6.239,3.636,6.239,7.174c0,4.176-3.242,7.124-8.893,7.124
		c-2.604,0-5.012-0.639-6.683-1.621L233.692,52.503z"/>
	<path fill="#68C7BF" d="M256.146,45.821c0.099,5.847,3.832,8.254,8.156,8.254c3.096,0,4.963-0.541,6.584-1.229l0.737,3.095
		c-1.523,0.688-4.128,1.474-7.911,1.474c-7.32,0-11.693-4.815-11.693-11.988s4.226-12.824,11.153-12.824
		c7.763,0,9.826,6.829,9.826,11.202c0,0.884-0.098,1.572-0.147,2.015H256.146z M268.822,42.726c0.049-2.751-1.13-7.026-5.994-7.026
		c-4.373,0-6.289,4.029-6.634,7.026H268.822z"/>
</g>
</svg>
